<svg width="78" height="92" viewBox="0 0 78 92" fill="none" xmlns="http://www.w3.org/2000/svg">
<path d="M71.3979 29.0423C71.3979 32.3389 71.3979 35.6355 71.3979 38.9321C71.3733 38.9321 71.357 38.9244 71.3325 38.9244C68.9711 38.9244 66.6097 38.9244 64.2401 38.9168C64.0767 38.9168 64.0195 38.978 63.9868 39.1156C63.6436 40.3318 63.2923 41.5479 62.9409 42.7641C62.9001 42.917 62.9246 43.0088 63.088 43.0853C63.5374 43.2918 63.9786 43.4907 64.4117 43.7278C65.7272 44.4468 67.0346 45.1887 68.3501 45.9153C68.6688 46.0912 68.9956 46.2748 69.3224 46.4584C69.2816 46.5349 69.2489 46.5884 69.2162 46.6496C67.5248 49.3572 65.8334 52.0649 64.142 54.7802C64.0522 54.9255 63.9868 54.9408 63.8316 54.8566C61.846 53.7782 59.8441 52.6997 57.8586 51.6213C57.687 51.5295 57.5808 51.5371 57.4337 51.6748C56.5349 52.5314 55.6279 53.3881 54.7046 54.2295C54.533 54.3901 54.5085 54.4972 54.631 54.6884C55.7668 56.5088 56.8862 58.3292 58.0138 60.1495C58.1854 60.4325 58.1854 60.4249 57.8831 60.5932C55.3419 61.9852 52.7926 63.3773 50.2514 64.7694C49.8755 64.9759 49.4997 65.1747 49.1156 65.3889C48.9849 65.1747 48.8624 64.9835 48.7398 64.7847C47.6612 63.0331 46.5826 61.2892 45.5041 59.5376C45.4224 59.4 45.3407 59.3617 45.1609 59.4076C43.9026 59.7289 42.6361 60.0501 41.3696 60.3561C41.1244 60.4172 41.0427 60.5014 41.0509 60.7385C41.0591 62.9031 41.0591 65.0676 41.0591 67.2246C41.0591 67.2934 41.0672 67.3623 41.0754 67.4311C37.5211 67.4311 33.9667 67.4311 30.4205 67.4311C30.4287 67.4005 30.4368 67.3776 30.4368 67.347C30.4368 65.0982 30.4368 62.8495 30.445 60.6085C30.445 60.4631 30.3633 60.4173 30.2326 60.379C28.9579 60.0654 27.6832 59.7518 26.4167 59.4229C26.1716 59.3617 26.0572 59.4076 25.9428 59.6065C24.9541 61.228 23.9573 62.8419 22.9604 64.4558C22.7725 64.7617 22.5764 65.0753 22.3803 65.3889C22.2659 65.3277 22.176 65.2742 22.0861 65.2283C19.259 63.6832 16.4236 62.1306 13.5965 60.5855C13.3105 60.4325 13.3105 60.4325 13.4739 60.1648C14.6178 58.3139 15.7536 56.4552 16.9057 54.6119C16.9956 54.4666 16.9711 54.3901 16.8567 54.2906C15.9252 53.4263 14.9937 52.5544 14.0622 51.6748C13.9151 51.5371 13.8089 51.5295 13.6373 51.6289C11.9786 52.5314 10.3199 53.4263 8.66122 54.3212C8.28535 54.5278 7.90949 54.7266 7.51728 54.9331C5.70333 52.0955 3.94657 49.2807 2.18165 46.4507C2.27153 46.3972 2.32872 46.3589 2.39409 46.3284C4.37964 45.2575 6.36518 44.1791 8.35072 43.1083C8.50597 43.0241 8.555 42.94 8.50597 42.7717C8.15462 41.5785 7.81144 40.3853 7.47643 39.1845C7.41923 38.978 7.32935 38.9244 7.10874 38.9244C5.09051 38.9321 3.07228 38.9244 1.06222 38.9321C0.710874 38.9321 0.351351 38.9397 0 38.9397C0 35.6431 0 32.3465 0 29.05C0.0817096 29.0423 0.163419 29.0347 0.245129 29.0347C2.533 29.0347 4.82087 29.027 7.10874 29.0423C7.34569 29.0423 7.44375 28.9811 7.50911 28.7593C7.82778 27.6043 8.15462 26.457 8.48963 25.3097C8.54683 25.1185 8.50597 25.0191 8.32621 24.9197C6.35701 23.8641 4.38781 22.801 2.42678 21.7378C2.09177 21.5542 2.14079 21.5848 2.30421 21.3171C3.91389 18.7395 5.52357 16.1619 7.13325 13.5919C7.2313 13.4313 7.33752 13.2707 7.45192 13.0948C7.52545 13.133 7.57448 13.156 7.63168 13.1789C9.60088 14.2421 11.5701 15.2976 13.5311 16.3684C13.7354 16.4755 13.8498 16.4602 14.005 16.3072C14.9529 15.4047 15.9089 14.5098 16.873 13.6149C17.0038 13.4925 17.0038 13.4084 16.9221 13.2707C15.9661 11.7333 15.0182 10.1883 14.0622 8.65089C13.8334 8.28375 13.6128 7.91661 13.3759 7.53418C16.4073 5.87441 19.4224 4.22994 22.4375 2.57783C22.4947 2.66961 22.5355 2.72315 22.5764 2.78434C23.7285 4.65062 24.8806 6.5169 26.0245 8.38319C26.1144 8.53616 26.2124 8.56675 26.384 8.52086C27.6342 8.19962 28.8762 7.87837 30.1263 7.57242C30.3388 7.51888 30.4123 7.43475 30.4123 7.22823C30.4041 5.04071 30.4041 2.86083 30.4041 0.673302C30.4041 0.581518 30.4041 0.497382 30.4041 0.397949C33.9585 0.397949 37.4802 0.397949 41.0264 0.397949C41.0264 0.505031 41.0264 0.596815 41.0264 0.680951C41.0264 2.86848 41.0264 5.04836 41.0182 7.23588C41.0182 7.41945 41.0672 7.51123 41.2715 7.55713C42.538 7.87072 43.7964 8.19197 45.0629 8.51321C45.2263 8.55146 45.3162 8.52086 45.406 8.38319C46.3375 6.85345 47.2854 5.33136 48.225 3.80927C48.4783 3.40389 48.7316 2.9985 48.9931 2.57018C52.0245 4.22994 55.0396 5.88206 58.0547 7.52653C58.0138 7.60302 57.9975 7.64126 57.9648 7.68715C56.8209 9.53814 55.6851 11.3968 54.533 13.2401C54.4349 13.4007 54.4431 13.5002 54.5902 13.6378C55.5544 14.5251 56.5104 15.42 57.4664 16.3225C57.6134 16.4602 57.7115 16.4679 57.8913 16.3761C59.7379 15.3741 61.5845 14.3721 63.4393 13.3701C63.6028 13.2783 63.7743 13.1942 63.9541 13.1024C65.7272 15.9401 67.484 18.7548 69.2489 21.5772C69.1917 21.6154 69.1672 21.646 69.1345 21.6613C68.4155 22.0514 67.6882 22.4415 66.961 22.8316C65.6618 23.5276 64.3708 24.2313 63.0717 24.9273C62.9573 24.9885 62.8837 25.042 62.9246 25.1874C63.2759 26.3729 63.6191 27.5585 63.9541 28.7517C64.0113 28.9582 64.1012 29.0194 64.3218 29.0117C66.5688 29.0041 68.824 29.0041 71.071 29.0117C71.1854 29.0347 71.2916 29.0423 71.3979 29.0423ZM61.0861 34.0063C61.0861 20.95 49.7121 10.2801 35.7561 10.2801C21.7348 10.2724 10.4098 20.8811 10.3608 33.8839C10.3118 46.9938 21.7102 57.679 35.6662 57.679C49.6549 57.6943 61.0779 47.0473 61.0861 34.0063Z" fill="#4174B9"/>
<path d="M78 63.0561C78 65.5036 78 67.9589 78 70.4064C77.9836 70.4064 77.9673 70.3988 77.951 70.3988C76.1942 70.3988 74.4374 70.3988 72.6807 70.3988C72.5581 70.3988 72.5173 70.4447 72.4928 70.5441C72.2395 71.4467 71.978 72.3569 71.7165 73.2594C71.6838 73.3741 71.7002 73.443 71.8227 73.4965C72.1577 73.6495 72.4846 73.8025 72.8032 73.9707C73.7838 74.5061 74.7561 75.0568 75.7285 75.5999C75.9654 75.7299 76.2024 75.8676 76.4475 76.0053C76.4148 76.0588 76.3903 76.1047 76.3658 76.143C75.1075 78.1546 73.8491 80.1738 72.5908 82.1854C72.5254 82.2925 72.4764 82.3002 72.362 82.239C70.8831 81.4359 69.396 80.6404 67.9252 79.8296C67.7944 79.7608 67.7209 79.7684 67.6147 79.8679C66.9447 80.5027 66.2665 81.1376 65.5883 81.7648C65.4576 81.8795 65.4412 81.9636 65.5311 82.1089C66.3727 83.4628 67.2061 84.8166 68.0396 86.1704C68.1703 86.3769 68.1703 86.3769 67.9415 86.4993C66.0459 87.5319 64.1584 88.5721 62.2709 89.6047C61.9931 89.7576 61.7153 89.903 61.4293 90.0636C61.3312 89.903 61.2413 89.7576 61.1515 89.6123C60.3507 88.312 59.5418 87.0118 58.7492 85.7115C58.6838 85.612 58.6266 85.5815 58.4959 85.612C57.5562 85.8568 56.6166 86.0939 55.6769 86.3157C55.4971 86.3616 55.44 86.4228 55.44 86.5987C55.4481 88.205 55.4481 89.8112 55.4481 91.4251C55.4481 91.4786 55.4563 91.5321 55.4563 91.578C52.8171 91.578 50.1779 91.578 47.5305 91.578C47.5305 91.5551 47.5386 91.5398 47.5386 91.5168C47.5386 89.8494 47.5386 88.1744 47.5386 86.5069C47.5386 86.3999 47.4814 86.3616 47.3834 86.3387C46.4356 86.1016 45.4877 85.8721 44.5481 85.6273C44.3683 85.5815 44.2866 85.6197 44.1967 85.765C43.4613 86.9659 42.7178 88.1667 41.9824 89.3676C41.8435 89.597 41.6964 89.8265 41.5493 90.0636C41.4594 90.0177 41.3941 89.9795 41.3287 89.9412C39.2288 88.7939 37.1207 87.639 35.0207 86.4916C34.8083 86.3769 34.8083 86.3769 34.9308 86.1781C35.7806 84.8013 36.6304 83.4245 37.4802 82.0478C37.5455 81.9407 37.5292 81.8871 37.4393 81.8106C36.7448 81.1682 36.0503 80.518 35.3639 79.8679C35.2577 79.7684 35.176 79.7608 35.0534 79.8296C33.8196 80.5027 32.5858 81.1682 31.352 81.8336C31.0741 81.9866 30.7963 82.1319 30.5022 82.2925C29.1867 80.1815 27.8793 78.0934 26.5638 75.99C26.6291 75.9517 26.67 75.9212 26.719 75.8982C28.198 75.1027 29.6687 74.2996 31.1477 73.5042C31.2621 73.443 31.3029 73.3818 31.2621 73.2518C31.0006 72.3645 30.7473 71.4773 30.494 70.5824C30.4532 70.4294 30.3796 70.3835 30.2244 70.3911C28.7291 70.3988 27.2256 70.3911 25.7303 70.3911C25.4689 70.3911 25.2074 70.3988 24.9459 70.3988C24.9459 67.9512 24.9459 65.496 24.9459 63.0484C25.0031 63.0484 25.0685 63.0408 25.1257 63.0408C26.8252 63.0408 28.5248 63.0408 30.2244 63.0408C30.4041 63.0408 30.4777 62.9949 30.5185 62.8342C30.7555 61.9776 31.0006 61.1209 31.2457 60.2719C31.2866 60.1266 31.2539 60.0578 31.1232 59.9813C29.6606 59.1935 28.198 58.4056 26.7354 57.6178C26.4821 57.4802 26.5229 57.5031 26.6455 57.3042C27.8384 55.3921 29.0396 53.4722 30.2325 51.5601C30.3061 51.4377 30.3878 51.323 30.4695 51.1929C30.5267 51.2159 30.5594 51.2388 30.6002 51.2541C32.0628 52.0419 33.5254 52.8297 34.9799 53.6252C35.1269 53.7093 35.2168 53.694 35.3312 53.5793C36.0339 52.9062 36.753 52.2408 37.4638 51.583C37.5619 51.4912 37.5619 51.43 37.4965 51.3306C36.7856 50.1833 36.0829 49.0436 35.3721 47.8963C35.2087 47.6286 35.0371 47.3533 34.8655 47.0703C37.1207 45.8388 39.3595 44.615 41.6065 43.3836C41.6474 43.4524 41.6801 43.4907 41.7127 43.5366C42.5707 44.921 43.4286 46.3054 44.2784 47.6975C44.352 47.8122 44.4173 47.8351 44.5481 47.8046C45.4714 47.5674 46.4029 47.3303 47.3344 47.1009C47.4896 47.0626 47.5468 47.0014 47.5468 46.8408C47.5386 45.2193 47.5468 43.5901 47.5468 41.9686C47.5468 41.8998 47.5468 41.8386 47.5468 41.7621C50.186 41.7621 52.8089 41.7621 55.4481 41.7621C55.4481 41.8386 55.4481 41.9074 55.4481 41.9762C55.4481 43.5978 55.4481 45.2269 55.4481 46.8485C55.4481 46.9861 55.489 47.055 55.6361 47.0932C56.5757 47.3227 57.5154 47.5674 58.455 47.8046C58.5776 47.8351 58.643 47.8122 58.7083 47.7051C59.4029 46.5731 60.1056 45.4411 60.8001 44.3015C60.988 44.0032 61.176 43.6972 61.3721 43.376C63.6273 44.6074 65.8661 45.8388 68.1131 47.0626C68.0804 47.1162 68.0641 47.1468 68.0477 47.185C67.198 48.5618 66.3482 49.9385 65.4984 51.3153C65.4249 51.4377 65.433 51.5065 65.5393 51.606C66.2583 52.2637 66.9692 52.9368 67.6719 53.6023C67.7781 53.7017 67.8598 53.7093 67.9824 53.6405C69.3551 52.8909 70.7278 52.149 72.1005 51.4071C72.2231 51.3383 72.3457 51.2771 72.4846 51.2082C73.8001 53.3193 75.1075 55.415 76.4148 57.5031C76.374 57.5337 76.3576 57.549 76.3331 57.5643C75.7938 57.8549 75.2545 58.1456 74.7234 58.4362C73.7592 58.9564 72.7951 59.4765 71.8309 59.9966C71.7492 60.0425 71.692 60.0807 71.7247 60.1954C71.9861 61.075 72.2395 61.9623 72.4928 62.8495C72.5336 63.0025 72.6071 63.0484 72.7706 63.0484C74.4456 63.0408 76.1125 63.0484 77.7875 63.0484C77.8447 63.0484 77.9183 63.0561 78 63.0561ZM70.3274 66.7427C70.3274 57.0365 61.8705 49.1048 51.4934 49.1048C41.0754 49.1048 32.6593 56.983 32.6185 66.6586C32.5858 76.403 41.0509 84.3424 51.428 84.35C61.8378 84.3577 70.3274 76.4413 70.3274 66.7427Z" fill="#4174B9"/>
<path d="M33.6889 39.2151C33.6889 40.0258 33.6889 40.8366 33.6889 41.6473C33.6808 41.6473 33.6808 41.6473 33.6726 41.6473C33.0924 41.6473 32.5123 41.6473 31.9322 41.6473C31.8913 41.6473 31.875 41.6626 31.8668 41.6932C31.7851 41.9915 31.6952 42.2898 31.6135 42.5881C31.6053 42.6264 31.6053 42.6493 31.6462 42.6646C31.7524 42.7182 31.8668 42.7641 31.973 42.8252C32.2999 43.0012 32.6185 43.1847 32.9372 43.3607C33.0189 43.4065 33.0924 43.4524 33.1742 43.4907C33.166 43.506 33.1578 43.5213 33.1496 43.5366C32.7329 44.202 32.3162 44.8674 31.8995 45.5329C31.875 45.5711 31.8586 45.5711 31.8259 45.5482C31.3357 45.2805 30.8454 45.0204 30.3552 44.7527C30.3143 44.7298 30.2898 44.7298 30.249 44.768C30.0283 44.9822 29.8077 45.1887 29.5789 45.3952C29.5381 45.4334 29.5299 45.464 29.5626 45.5099C29.8404 45.9536 30.1182 46.4048 30.396 46.8485C30.4369 46.9173 30.4369 46.9173 30.3633 46.9555C29.7342 47.2997 29.1132 47.6363 28.4922 47.9805C28.4023 48.034 28.3043 48.0799 28.2144 48.1334C28.1817 48.0799 28.149 48.034 28.1245 47.9881C27.863 47.5598 27.5934 47.1315 27.3319 46.6955C27.3074 46.6649 27.2911 46.6496 27.2502 46.6649C26.9397 46.7414 26.6292 46.8255 26.3187 46.8943C26.2615 46.9096 26.237 46.9326 26.237 46.9861C26.237 47.5139 26.237 48.0493 26.237 48.5771C26.237 48.5924 26.237 48.6077 26.237 48.6306C25.3627 48.6306 24.4884 48.6306 23.6223 48.6306C23.6223 48.623 23.6223 48.6153 23.6223 48.6077C23.6223 48.057 23.6223 47.5062 23.6223 46.9479C23.6223 46.9096 23.606 46.902 23.5733 46.8943C23.2628 46.8179 22.9441 46.7414 22.6336 46.6572C22.5764 46.6419 22.5437 46.6572 22.5192 46.7031C22.2741 47.1009 22.029 47.4986 21.7838 47.8963C21.7348 47.9728 21.6858 48.0493 21.6449 48.1258C21.6204 48.1105 21.5959 48.0952 21.5714 48.0875C20.8769 47.7051 20.1823 47.3303 19.4878 46.9479C19.4143 46.9096 19.4143 46.9096 19.4551 46.8485C19.7329 46.3895 20.0189 45.9383 20.2967 45.487C20.3212 45.4487 20.3131 45.4334 20.2804 45.4105C20.0516 45.1963 19.8228 44.9822 19.594 44.768C19.5613 44.7374 19.5287 44.7298 19.4878 44.7527C19.0792 44.9745 18.6707 45.1963 18.2622 45.4182C18.1723 45.4717 18.0742 45.5176 17.9843 45.5711C17.5513 44.8751 17.1182 44.1791 16.6852 43.4907C16.7097 43.4754 16.7178 43.4677 16.7342 43.4601C17.2244 43.2 17.7065 42.9323 18.1968 42.6723C18.2376 42.6493 18.2458 42.634 18.2376 42.5881C18.1478 42.2975 18.0661 41.9992 17.9843 41.7085C17.968 41.655 17.9435 41.6473 17.8945 41.6473C17.396 41.6473 16.9058 41.6473 16.4073 41.6473C16.3175 41.6473 16.2358 41.6473 16.1459 41.6473C16.1459 40.8366 16.1459 40.0258 16.1459 39.2151C16.1622 39.2151 16.1867 39.2151 16.2031 39.2151C16.7669 39.2151 17.3307 39.2151 17.8863 39.2151C17.9435 39.2151 17.968 39.1998 17.9843 39.1462C18.0579 38.8632 18.1396 38.5802 18.2295 38.2972C18.2458 38.2513 18.2295 38.2284 18.1886 38.2054C17.7065 37.9454 17.2244 37.6853 16.7424 37.4253C16.6606 37.3794 16.6688 37.387 16.7097 37.3258C17.1019 36.691 17.5023 36.0638 17.8945 35.429C17.919 35.3907 17.9435 35.3525 17.968 35.3066C17.9843 35.3142 18.0007 35.3219 18.0089 35.3295C18.4909 35.5896 18.973 35.8496 19.4551 36.1173C19.5041 36.1479 19.5368 36.1403 19.5695 36.102C19.8065 35.8802 20.0353 35.6584 20.2722 35.4443C20.3049 35.4137 20.3049 35.3907 20.2804 35.3601C20.0434 34.9853 19.8146 34.6029 19.5777 34.2281C19.5205 34.1363 19.4715 34.0522 19.4061 33.9528C20.1496 33.5474 20.8932 33.142 21.6368 32.7366C21.6531 32.7596 21.6613 32.7749 21.6694 32.7902C21.9554 33.2491 22.2332 33.708 22.5192 34.1669C22.5437 34.2052 22.5682 34.2128 22.6091 34.1975C22.9114 34.121 23.2219 34.0369 23.5324 33.9681C23.5814 33.9528 23.606 33.9375 23.606 33.8839C23.606 33.3485 23.606 32.8131 23.606 32.2777C23.606 32.2548 23.606 32.2318 23.606 32.2089C24.4803 32.2089 25.3464 32.2089 26.2125 32.2089C26.2125 32.2318 26.2125 32.2548 26.2125 32.2777C26.2125 32.8131 26.2125 33.3485 26.2125 33.8839C26.2125 33.9298 26.2288 33.9528 26.2779 33.9604C26.5884 34.0369 26.8989 34.1134 27.2094 34.1975C27.2502 34.2052 27.2747 34.1975 27.2911 34.1669C27.5199 33.7921 27.7486 33.4174 27.9856 33.0426C28.051 32.9431 28.1082 32.8437 28.1735 32.7366C28.9171 33.142 29.6606 33.5474 30.4042 33.9528C30.396 33.9681 30.3879 33.9834 30.3797 33.991C30.1019 34.4499 29.8159 34.9012 29.5381 35.3525C29.5136 35.3907 29.5136 35.4137 29.5544 35.4519C29.7914 35.6737 30.0283 35.8879 30.2571 36.1097C30.2898 36.1403 30.3143 36.1479 30.3633 36.125C30.8127 35.8802 31.2703 35.6355 31.7279 35.3907C31.7688 35.3678 31.8096 35.3448 31.8586 35.3219C32.2917 36.0179 32.7248 36.7139 33.1578 37.4023C33.1415 37.41 33.1415 37.4176 33.1333 37.4253C32.9535 37.5247 32.7738 37.6165 32.6022 37.7159C32.2835 37.8842 31.9649 38.0601 31.6462 38.2284C31.6217 38.2437 31.5972 38.259 31.6135 38.2896C31.7034 38.5802 31.7851 38.8709 31.8668 39.1692C31.8831 39.2227 31.9077 39.2304 31.9567 39.2304C32.5123 39.2304 33.0598 39.2304 33.6154 39.2304C33.6399 39.2074 33.6644 39.2151 33.6889 39.2151ZM31.1559 40.4312C31.1559 37.2264 28.3615 34.6029 24.9297 34.6029C21.4897 34.6029 18.7034 37.2035 18.6952 40.4006C18.687 43.6207 21.4815 46.2442 24.9133 46.2442C28.3533 46.2519 31.1559 43.636 31.1559 40.4312Z" fill="#4174B9"/>
</svg>
