<svg width="111" height="123" viewBox="0 0 111 123" fill="none" xmlns="http://www.w3.org/2000/svg">
<path d="M70.559 96.9066H55.7653V29.7478H56.7124C56.7502 29.7478 56.7881 29.7478 56.8165 29.7478C66.6095 29.7478 76.0237 34.9758 80.835 43.0924C86.9911 53.4821 86.6312 63.8434 79.7742 73.8826C78.7798 75.3317 77.6811 76.7429 76.6109 78.1067C72.5005 83.3631 68.6269 88.3354 70.3032 95.7512L70.559 96.9066ZM57.6595 95.0124H68.2291C66.9884 87.3409 71.1177 82.0561 75.1145 76.9323C76.1658 75.5874 77.2455 74.2046 78.202 72.8029C84.6139 63.4267 84.9454 53.7568 79.1965 44.049C74.8588 36.7374 66.4864 31.9356 57.65 31.6515V95.0124H57.6595Z" fill="#4174B9"/>
<path d="M55.7653 122.355V109.882H69.1383L68.75 111.113C67.2915 115.697 60.1882 121.834 56.826 122.223L55.7653 122.355ZM57.6595 111.776V120.044C60.3492 118.908 64.6964 114.987 66.4107 111.776H57.6595Z" fill="#4174B9"/>
<path d="M55.7653 110.242V103.157L56.7029 103.148C57.4606 103.148 58.2182 103.129 58.9665 103.11C61.2584 103.072 63.6262 103.025 65.9655 103.262C67.102 103.375 68.0018 104.161 68.8731 104.919C69.2141 105.213 69.5361 105.497 69.8581 105.724L70.8715 106.434L69.9244 107.23C69.6308 107.476 69.3277 107.798 69.0057 108.149C68.1723 109.039 67.3009 109.967 66.1644 110.014C63.0579 110.147 59.8757 110.223 56.7124 110.242H55.7653ZM57.6595 105.033V108.338C60.4818 108.319 63.3136 108.243 66.0792 108.12C66.4485 108.101 67.1305 107.382 67.6229 106.851C67.7082 106.756 67.7934 106.662 67.8787 106.576C67.7934 106.501 67.7082 106.434 67.6229 106.359C66.9789 105.79 66.3065 105.213 65.7666 105.156C63.5504 104.929 61.2395 104.976 59.0043 105.014C58.5592 105.023 58.1046 105.023 57.6595 105.033Z" fill="#4174B9"/>
<path d="M55.7653 103.574V96.4899H56.7124C57.4985 96.4899 58.2845 96.4709 59.0706 96.452C61.3626 96.4046 63.7304 96.3667 66.0602 96.6035C67.1968 96.7172 68.0965 97.5033 68.9678 98.2609C69.3088 98.5545 69.6308 98.8387 69.9528 99.066L70.9662 99.7763L70.0191 100.572C69.7255 100.818 69.4224 101.14 69.1004 101.491C68.267 102.381 67.3956 103.309 66.2591 103.356C63.1242 103.489 59.9136 103.565 56.7218 103.584L55.7653 103.574ZM57.6595 98.3651V101.661C60.5102 101.642 63.3705 101.566 66.1739 101.443C66.5433 101.424 67.2252 100.704 67.7177 100.174C67.8029 100.079 67.8881 99.9941 67.9734 99.8994C67.8881 99.8237 67.8029 99.7574 67.7177 99.6816C67.0642 99.1133 66.4012 98.5356 65.8613 98.4788C63.6451 98.2515 61.3342 98.2988 59.0991 98.3367C58.616 98.3557 58.133 98.3651 57.6595 98.3651Z" fill="#4174B9"/>
<path d="M31.4721 43.0356C25.5432 53.2643 25.8937 63.5592 32.5044 73.428C37.2304 80.4839 44.3526 86.4128 42.1175 96.5278C46.4363 96.5278 50.594 96.5278 54.7802 96.5278V29.8899C45.4892 29.852 36.2644 34.7769 31.4721 43.0356Z" fill="#4174B9"/>
<path d="M43.6423 111.719C44.9493 115.924 51.7495 122.043 54.7707 122.393V111.71C51.1623 111.719 47.4781 111.719 43.6423 111.719Z" fill="#4174B9"/>
<path d="M45.6122 104.957C44.3999 105.09 43.3108 106.482 42.1648 107.296C43.2255 108.206 44.2579 109.863 45.3565 109.91C48.4914 110.052 51.6263 110.128 54.7707 110.138V104.834C51.721 104.824 48.643 104.644 45.6122 104.957Z" fill="#4174B9"/>
<path d="M45.527 98.1568C44.3147 98.2894 43.2256 99.6816 42.0796 100.496C43.1403 101.405 44.1727 103.063 45.2713 103.11C48.4346 103.252 51.5979 103.328 54.7707 103.337V98.0336C51.6926 98.0242 48.5862 97.8347 45.527 98.1568Z" fill="#4174B9"/>
<path d="M56.7123 1.41064C56.7123 1.42011 56.7123 1.42011 56.7123 1.41064L56.5229 25.2965C56.5134 26.0731 56.1251 26.6982 55.6516 26.6982C55.178 26.6887 54.7992 26.0731 54.8086 25.2775L54.9981 1.3917C55.0075 0.615076 55.3959 -0.0100098 55.8694 -0.0100098C56.3335 0.00893222 56.7123 0.634018 56.7123 1.41064Z" fill="#4174B9"/>
<path d="M109.807 55.3385L89.7944 55.2627C89.1409 55.2627 88.62 54.8744 88.62 54.4009C88.62 53.9273 89.1504 53.5485 89.8039 53.5485C89.8039 53.5485 89.8039 53.5485 89.8133 53.5485L109.826 53.6242C110.479 53.6242 111 54.0125 111 54.4861C110.981 54.9502 110.46 55.3385 109.807 55.3385Z" fill="#4174B9"/>
<path d="M22.7777 55.3385L1.25964 55.2532C0.558789 55.2532 0 54.8649 0 54.4009C0 53.9273 0.56826 53.5485 1.26911 53.5485C1.26911 53.5485 1.26911 53.5485 1.27858 53.5485L22.7872 53.6242C23.4881 53.6242 24.0563 54.0125 24.0469 54.4861C24.0469 54.9502 23.4786 55.3385 22.7777 55.3385Z" fill="#4174B9"/>
<path d="M96.5663 19.6044C96.5663 19.6044 96.5568 19.6139 96.5663 19.6044L80.7308 35.3263C80.2193 35.8377 79.5279 35.9798 79.1965 35.6388C78.865 35.3073 79.0165 34.6159 79.5279 34.1045C79.5279 34.1045 79.5279 34.1045 79.5374 34.095L95.3634 18.3827C95.8749 17.8712 96.5663 17.7292 96.8977 18.0701C97.2197 18.4111 97.0777 19.093 96.5663 19.6044Z" fill="#4174B9"/>
<path d="M31.9836 35.3832L16.6216 20.1254C16.1197 19.6329 15.4472 19.5003 15.1157 19.8318C14.7843 20.1633 14.9169 20.8452 15.4188 21.3377C15.4188 21.3377 15.4188 21.3377 15.4283 21.3472L30.7902 36.5955C31.2922 37.088 31.9646 37.2205 32.2961 36.8891C32.6181 36.5481 32.4856 35.8757 31.9836 35.3832Z" fill="#4174B9"/>
</svg>
