<svg width="78" height="106" viewBox="0 0 78 106" fill="none" xmlns="http://www.w3.org/2000/svg">
<g clip-path="url(#clip0)">
<path d="M17.6176 67.2213C17.975 67.2213 18.0068 67.2611 18.0068 67.6741C18.0068 69.9934 18.0227 72.3049 17.9988 74.6242C17.9909 75.2835 18.0703 75.8951 18.4198 76.4114C18.6581 76.7688 18.944 77.1262 19.2697 77.3566C19.7145 77.6743 20.2388 77.7776 20.7709 77.7617C21.0092 77.7537 21.2555 77.7617 21.4937 77.7617C23.265 77.7617 25.0363 77.7617 26.8076 77.7617C27.0459 77.7617 27.0856 77.8093 27.0935 78.0715C27.0935 78.135 27.0935 78.1985 27.0935 78.2621C27.0935 84.3623 27.0935 90.4625 27.0935 96.5627C27.0935 96.7057 27.1015 96.8486 27.0856 96.9916C27.0697 97.1108 27.03 97.2379 26.9665 97.3332C26.7599 97.6985 26.4502 97.8097 26.0768 97.8097C19.5159 97.8018 12.955 97.8097 6.39415 97.8097C6.28295 97.8097 6.1638 97.8256 6.06849 97.7939C5.79048 97.7065 5.52042 97.5794 5.43305 97.2299C5.36156 96.9678 5.30596 96.6977 5.29802 96.4277C5.29007 91.7969 5.29007 87.1582 5.29007 82.5275C5.29007 77.9205 5.29007 73.3057 5.29007 68.6987C5.29007 68.5558 5.26625 68.4049 5.29802 68.2698C5.36156 68.0315 5.4251 67.7853 5.55219 67.5867C5.74282 67.2928 6.04466 67.2134 6.36238 67.2134C10.1194 67.2214 13.8685 67.2213 17.6176 67.2213ZM6.25117 65.2435C5.41716 65.2594 4.69435 65.601 4.16217 66.3715C3.82062 66.8719 3.63794 67.4517 3.64588 68.103C3.65382 68.8735 3.64588 78.4765 3.64588 82.5036C3.64588 87.2535 3.64588 92.0114 3.64588 96.7613C3.64588 97.0472 3.65382 97.3332 3.70148 97.6112C3.74119 97.8336 3.83651 98.056 3.93977 98.2625C4.15423 98.6914 4.44018 99.0489 4.8135 99.303C5.19476 99.5731 5.62368 99.6922 6.06054 99.7478C6.15586 99.7558 6.25117 99.7558 6.34649 99.7558C12.8994 99.7558 19.4445 99.7558 25.9974 99.7478C26.3787 99.7478 26.7758 99.7002 27.1412 99.5731C27.586 99.4222 27.9514 99.0886 28.2453 98.6676C28.6424 98.1036 28.8251 97.4444 28.833 96.7216C28.833 95.3474 28.833 81.8205 28.833 77.7776C28.833 77.2772 28.841 76.7926 28.6821 76.3002C28.5471 75.8871 28.3803 75.5138 28.1261 75.204C28.0467 75.1087 27.9673 75.0134 27.8878 74.9181L27.4113 74.3621C27.2365 74.1635 27.0618 73.9649 26.887 73.7584C25.9021 72.6226 24.9172 71.4867 23.9243 70.3509C22.7805 69.0403 21.6208 67.7297 20.477 66.4112C19.8495 65.6884 19.1426 65.2912 18.2212 65.3071C16.2196 65.3627 7.43468 65.2197 6.25117 65.2435Z" fill="#4174B9"/>
<path d="M21.5255 82.1382L10.9455 82.0746C10.6039 82.0746 10.3259 81.749 10.3259 81.3518C10.3259 80.9547 10.6039 80.637 10.9534 80.637L21.5255 80.7005C21.8671 80.7005 22.1451 81.0262 22.1451 81.4233C22.153 81.8205 21.875 82.1382 21.5255 82.1382Z" fill="#4174B9"/>
<path d="M21.5255 94.2353L10.9455 94.1718C10.6039 94.1718 10.3259 93.8461 10.3259 93.449C10.3259 93.0518 10.6039 92.7341 10.9534 92.7341L21.5255 92.7977C21.8671 92.7977 22.1451 93.1233 22.1451 93.5205C22.153 93.9176 21.875 94.2353 21.5255 94.2353Z" fill="#4174B9"/>
<path d="M21.5255 87.8969L10.9455 87.8333C10.6039 87.8333 10.3259 87.5076 10.3259 87.1105C10.3259 86.7134 10.6039 86.3956 10.9534 86.3956L21.5255 86.4592C21.8671 86.4592 22.1451 86.7848 22.1451 87.182C22.153 87.5791 21.875 87.8969 21.5255 87.8969Z" fill="#4174B9"/>
<path d="M64.0045 6.96593C64.362 6.96593 64.3937 7.00565 64.3937 7.41868C64.3937 9.73803 64.4096 12.0494 64.3858 14.3688C64.3779 15.0281 64.4573 15.6397 64.8068 16.156C65.0451 16.5134 65.331 16.8708 65.6567 17.1012C66.1015 17.4189 66.6257 17.5221 67.1579 17.5063C67.3962 17.4983 67.6424 17.5063 67.8807 17.5063C69.652 17.5063 71.4233 17.5063 73.1946 17.5063C73.4329 17.5063 73.4726 17.5539 73.4805 17.816C73.4805 17.8796 73.4805 17.9431 73.4805 18.0067C73.4805 24.1069 73.4805 30.2071 73.4805 36.3073C73.4805 36.4503 73.4885 36.5932 73.4726 36.7362C73.4567 36.8553 73.417 36.9824 73.3534 37.0777C73.1469 37.4431 72.8371 37.5543 72.4638 37.5543C65.9029 37.5464 59.342 37.5543 52.7811 37.5543C52.6699 37.5543 52.5508 37.5702 52.4555 37.5384C52.1775 37.4511 51.9074 37.324 51.82 36.9745C51.7485 36.7124 51.6929 36.4423 51.685 36.1723C51.677 31.5415 51.677 26.9028 51.677 22.272C51.677 17.6651 51.677 13.0503 51.677 8.44333C51.677 8.30035 51.6532 8.14944 51.685 8.01441C51.7485 7.77612 51.8121 7.52989 51.9392 7.33131C52.1298 7.03742 52.4316 6.95799 52.7494 6.95799C56.4984 6.96593 60.2475 6.96593 64.0045 6.96593ZM52.6302 4.98019C51.7962 4.99608 51.0734 5.33762 50.5412 6.10809C50.1997 6.6085 50.017 7.18834 50.0249 7.83966C50.0328 8.61013 50.0249 18.2132 50.0249 22.2403C50.0249 26.9902 50.0249 31.748 50.0249 36.4979C50.0249 36.7839 50.0328 37.0698 50.0805 37.3478C50.1202 37.5702 50.2155 37.7926 50.3188 37.9991C50.5333 38.4281 50.8192 38.7855 51.1925 39.0397C51.5738 39.3097 52.0027 39.4289 52.4396 39.4845C52.5349 39.4924 52.6302 39.4924 52.7255 39.4924C59.2785 39.4924 65.8235 39.4924 72.3764 39.4845C72.7577 39.4845 73.1548 39.4368 73.5202 39.3097C73.965 39.1588 74.3304 38.8252 74.6243 38.4042C75.0214 37.8403 75.2041 37.181 75.2121 36.4582C75.2121 35.0841 75.2121 21.5572 75.2121 17.5142C75.2121 17.0138 75.22 16.5293 75.0612 16.0368C74.9261 15.6238 74.7593 15.2505 74.5052 14.9407C74.4257 14.8454 74.3463 14.75 74.2669 14.6547L73.7903 14.0987C73.6155 13.9002 73.4408 13.7016 73.266 13.4951C72.2811 12.3592 71.2962 11.2234 70.3033 10.0875C69.1595 8.77693 67.9999 7.46634 66.8561 6.14781C66.2286 5.425 65.5217 5.02785 64.6003 5.04373C62.6066 5.09934 53.8137 4.9643 52.6302 4.98019Z" fill="#4174B9"/>
<path d="M67.9125 21.8829C67.9045 21.8829 67.9045 21.8829 67.9125 21.8829L57.3324 21.8194C56.9909 21.8194 56.7129 21.4937 56.7129 21.0966C56.7129 20.6994 56.9909 20.3817 57.3404 20.3817L67.9125 20.4453C68.254 20.4453 68.532 20.7709 68.532 21.1681C68.532 21.5652 68.254 21.8829 67.9125 21.8829Z" fill="#4174B9"/>
<path d="M67.9125 33.972C67.9125 33.972 67.9045 33.972 67.9125 33.972L57.3324 33.9085C56.9909 33.9085 56.7129 33.5828 56.7129 33.1857C56.7129 32.7885 56.9909 32.4708 57.3404 32.4708L67.9125 32.5344C68.254 32.5344 68.532 32.86 68.532 33.2572C68.532 33.6543 68.254 33.972 67.9125 33.972Z" fill="#4174B9"/>
<path d="M67.9125 27.6335C67.9045 27.6335 67.9045 27.6335 67.9125 27.6335L57.3324 27.57C56.9909 27.57 56.7129 27.2443 56.7129 26.8472C56.7129 26.45 56.9909 26.1323 57.3404 26.1323L67.9125 26.1959C68.254 26.1959 68.532 26.5215 68.532 26.9187C68.532 27.3158 68.254 27.6335 67.9125 27.6335Z" fill="#4174B9"/>
<path d="M61.161 99.1998H31.764V96.8169H61.161C65.76 96.8169 69.5011 93.0758 69.5011 88.4768V43.5752H71.884V88.4768C71.884 94.3864 67.0706 99.1998 61.161 99.1998Z" fill="#4174B9"/>
<path d="M63.385 49.4927L64.6956 50.7159L70.6925 44.2583L76.6895 50.7159L78.0001 49.4927L70.6925 41.6292L63.385 49.4927Z" fill="#4174B9"/>
<path d="M37.6815 90.6929L38.9047 92.0035L32.4471 98.0004L38.9047 104.005L37.6815 105.316L29.8259 98.0004L37.6815 90.6929Z" fill="#4174B9"/>
<path d="M8.49898 60.8591H6.11609V16.8391C6.11609 10.9295 10.9295 6.11609 16.8391 6.11609H44.3774V8.49898H16.8391C12.2401 8.49898 8.49898 12.2401 8.49898 16.8391V60.8591Z" fill="#4174B9"/>
<path d="M14.6151 54.9337L13.3045 53.7184L7.30754 60.176L1.31059 53.7184L0 54.9337L7.30754 62.7972L14.6151 54.9337Z" fill="#4174B9"/>
<path d="M38.452 14.6151L37.2367 13.3045L43.6864 7.30754L37.2367 1.31059L38.452 0L46.3155 7.30754L38.452 14.6151Z" fill="#4174B9"/>
</g>
<defs>
<clipPath id="clip0">
<rect width="78" height="105.316" fill="white"/>
</clipPath>
</defs>
</svg>
