<svg width="53" height="53" viewBox="0 0 53 53" fill="none" xmlns="http://www.w3.org/2000/svg">
<path d="M35.4985 35.3978C31.5458 35.3978 27.8247 35.3978 24.031 35.3978C24.0028 35.7544 24.0028 36.0163 23.9565 36.2681C23.7873 37.1848 23.2836 37.7247 22.2964 37.7146C21.412 37.7066 20.5295 37.7146 19.6451 37.7146C17.7311 37.7146 17.4108 37.4265 17.2154 35.4884C15.4928 35.4018 13.7099 35.021 12.3661 37.0155C11.5219 34.7108 10.7866 32.7021 10.027 30.631C10.2829 30.5363 10.4602 30.3973 10.573 30.4376C11.9954 30.9353 12.8456 30.0004 13.7784 29.2127C18.4766 25.2458 23.1849 21.291 27.8911 17.3342C28.0926 17.165 28.3122 17.0179 28.6869 16.7399C30.9575 22.9592 33.1877 29.0656 35.4985 35.3978ZM12.7912 30.8829C13.1578 31.9144 13.5527 32.8875 13.8428 33.8888C14.0604 34.6423 14.4654 34.8397 15.233 34.8357C21.3132 34.8014 27.3935 34.8175 33.4758 34.8135C33.7982 34.8135 34.1185 34.7833 34.5799 34.7611C32.4967 29.0515 30.4558 23.4628 28.3807 17.7734C23.1103 22.2077 17.9931 26.509 12.7912 30.8829ZM18.0072 35.4824C17.8863 36.7315 18.1583 37.078 19.2361 37.0921C20.1467 37.1042 21.0594 37.1022 21.97 37.0921C23.1144 37.08 23.4105 36.7033 23.205 35.4824C21.5026 35.4824 19.7922 35.4824 18.0072 35.4824ZM10.9336 31.2415C11.4857 32.7364 12.0357 34.2212 12.5877 35.7161C13.454 35.3091 13.589 34.8276 13.2404 34.1023C12.9221 33.4395 12.6642 32.7323 12.489 32.0171C12.2754 31.1387 11.7717 30.9796 10.9336 31.2415Z" fill="#F15A24"/>
<path d="M41.3532 32.1542C42.419 28.9367 42.8602 25.7253 41.6312 22.4575C40.4124 19.2179 38.1358 16.9434 35.1017 15.3216C36.6107 14.9428 39.6508 17.4672 41.2364 20.1044C43.6882 24.1841 43.3679 29.656 41.3532 32.1542Z" fill="#F15A24"/>
<path d="M33.6713 18.0836C35.1319 17.7653 37.6019 19.8263 38.7966 22.1432C40.3237 25.0987 40.2532 29.394 38.4581 31.0299C38.5186 30.5424 38.5024 30.2341 38.5951 29.9642C40.2109 25.2941 38.6535 21.0996 34.3603 18.5954C34.1689 18.4825 33.9997 18.3294 33.6713 18.0836Z" fill="#F15A24"/>
<path d="M32.2187 20.9023C33.8042 20.6424 35.6577 22.379 36.377 24.3655C37.1002 26.3661 36.796 28.8723 35.5066 29.6379C36.8323 25.8463 35.9337 22.9351 32.2187 20.9023Z" fill="#F15A24"/>
<path d="M26.499 53C11.8886 53 0 41.1114 0 26.499C0 11.8886 11.8886 0 26.499 0C41.1114 0 52.998 11.8886 52.998 26.499C53 41.1114 41.1114 53 26.499 53ZM26.499 1.00734C12.4426 1.00734 1.00734 12.4426 1.00734 26.499C1.00734 40.5554 12.4426 51.9907 26.499 51.9907C40.5554 51.9907 51.9907 40.5554 51.9907 26.499C51.9927 12.4426 40.5554 1.00734 26.499 1.00734Z" fill="#F15A24"/>
</svg>
